%TF.GenerationSoftware,Altium Limited,Altium Designer,21.8.1 (53)*%
G04 Layer_Color=128*
%FSLAX26Y26*%
%MOIN*%
%TF.SameCoordinates,5B9076D9-9D05-4804-A52A-FD960459403A*%
%TF.FilePolarity,Positive*%
%TF.FileFunction,Drillmap*%
%TF.Part,Single*%
G01*
G75*
%TA.AperFunction,NonConductor*%
%ADD37C,0.005000*%
D37*
X3051181Y838583D02*
X3090551D01*
X3070866Y818898D02*
Y858268D01*
X3051181Y1204724D02*
X3090551D01*
X3070866Y1185039D02*
Y1224409D01*
X2700787Y838583D02*
X2740157D01*
X2720472Y818898D02*
Y858268D01*
X2777165Y1712598D02*
X2816535D01*
X2796850Y1692913D02*
Y1732283D01*
X2677165Y1712598D02*
X2716535D01*
X2696850Y1692913D02*
Y1732283D01*
X3748032Y181102D02*
X3771654D01*
X3759843Y169291D02*
Y192913D01*
X3748032Y629921D02*
X3771654D01*
X3759843Y618110D02*
Y641732D01*
X3059055Y181102D02*
X3082677D01*
X3070866Y169291D02*
Y192913D01*
X3059055Y629921D02*
X3082677D01*
X3070866Y618110D02*
Y641732D01*
X2370079Y177165D02*
X2393701D01*
X2381890Y165354D02*
Y188976D01*
X2370079Y625984D02*
X2393701D01*
X2381890Y614173D02*
Y637795D01*
X1681102Y177165D02*
X1704725D01*
X1692914Y165354D02*
Y188976D01*
X1681102Y625984D02*
X1704725D01*
X1692914Y614173D02*
Y637795D01*
X511024Y1929134D02*
X530709D01*
X520866Y1919291D02*
Y1938976D01*
X611024Y1929134D02*
X630709D01*
X620866Y1919291D02*
Y1938976D01*
X3389764Y838583D02*
X3429134D01*
X3409449Y818898D02*
Y858268D01*
X3740158Y1204724D02*
X3779528D01*
X3759843Y1185039D02*
Y1224409D01*
X3740158Y838583D02*
X3779528D01*
X3759843Y818898D02*
Y858268D01*
X2031496Y838583D02*
X2070866D01*
X2051181Y818898D02*
Y858268D01*
X2381890Y1204724D02*
X2421260D01*
X2401575Y1185039D02*
Y1224409D01*
X2381890Y838583D02*
X2421260D01*
X2401575Y818898D02*
Y858268D01*
X1338583Y846457D02*
X1377953D01*
X1358268Y826772D02*
Y866142D01*
X1688976Y1212599D02*
X1728346D01*
X1708661Y1192914D02*
Y1232284D01*
X1688976Y846457D02*
X1728346D01*
X1708661Y826772D02*
Y866142D01*
X788976Y452756D02*
X828346D01*
X808661Y433071D02*
Y472441D01*
X688976Y452756D02*
X728346D01*
X708661Y433071D02*
Y472441D01*
X588976Y452756D02*
X628346D01*
X608661Y433071D02*
Y472441D01*
X488976Y452756D02*
X528346D01*
X508661Y433071D02*
Y472441D01*
X236220Y3188976D02*
X275591D01*
X255905Y3169291D02*
Y3208661D01*
X236220Y3288976D02*
X275591D01*
X255905Y3269291D02*
Y3308661D01*
X999606Y2413780D02*
X1038976D01*
X1019291Y2394095D02*
Y2433465D01*
X899606Y2413780D02*
X938976D01*
X919291Y2394095D02*
Y2433465D01*
X799606Y2413780D02*
X838976D01*
X819291Y2394095D02*
Y2433465D01*
X699606Y2413780D02*
X738976D01*
X719291Y2394095D02*
Y2433465D01*
X599606Y2413780D02*
X638976D01*
X619291Y2394095D02*
Y2433465D01*
X499606Y2413780D02*
X538976D01*
X519291Y2394095D02*
Y2433465D01*
X399606Y2413780D02*
X438976D01*
X419291Y2394095D02*
Y2433465D01*
X299606Y2413780D02*
X338976D01*
X319291Y2394095D02*
Y2433465D01*
X999606Y2113780D02*
X1038976D01*
X1019291Y2094095D02*
Y2133465D01*
X899606Y2113780D02*
X938976D01*
X919291Y2094095D02*
Y2133465D01*
X799606Y2113780D02*
X838976D01*
X819291Y2094095D02*
Y2133465D01*
X699606Y2113780D02*
X738976D01*
X719291Y2094095D02*
Y2133465D01*
X599606Y2113780D02*
X638976D01*
X619291Y2094095D02*
Y2133465D01*
X499606Y2113780D02*
X538976D01*
X519291Y2094095D02*
Y2133465D01*
X399606Y2113780D02*
X438976D01*
X419291Y2094095D02*
Y2133465D01*
X299606Y2113780D02*
X338976D01*
X319291Y2094095D02*
Y2133465D01*
X2074016Y1963780D02*
X2113386D01*
X2093701Y1944094D02*
Y1983465D01*
X2174016Y1963780D02*
X2213386D01*
X2193701Y1944094D02*
Y1983465D01*
X2274016Y1963780D02*
X2313386D01*
X2293701Y1944094D02*
Y1983465D01*
X2374016Y1963780D02*
X2413386D01*
X2393701Y1944094D02*
Y1983465D01*
X2474016Y1963780D02*
X2513386D01*
X2493701Y1944094D02*
Y1983465D01*
X2574016Y1963780D02*
X2613386D01*
X2593701Y1944094D02*
Y1983465D01*
X2674016Y1963780D02*
X2713386D01*
X2693701Y1944094D02*
Y1983465D01*
X2774016Y1963780D02*
X2813386D01*
X2793701Y1944094D02*
Y1983465D01*
X2874016Y1963780D02*
X2913386D01*
X2893701Y1944094D02*
Y1983465D01*
X2974016Y1963780D02*
X3013386D01*
X2993701Y1944094D02*
Y1983465D01*
X3074016Y1963780D02*
X3113386D01*
X3093701Y1944094D02*
Y1983465D01*
X3174016Y1963780D02*
X3213386D01*
X3193701Y1944094D02*
Y1983465D01*
X3274016Y1963780D02*
X3313386D01*
X3293701Y1944094D02*
Y1983465D01*
X3374016Y1963780D02*
X3413386D01*
X3393701Y1944094D02*
Y1983465D01*
X3474016Y1963780D02*
X3513386D01*
X3493701Y1944094D02*
Y1983465D01*
X3574016Y1963780D02*
X3613386D01*
X3593701Y1944094D02*
Y1983465D01*
X3674016Y1963780D02*
X3713386D01*
X3693701Y1944094D02*
Y1983465D01*
X2074016Y2563780D02*
X2113386D01*
X2093701Y2544095D02*
Y2583465D01*
X2174016Y2563780D02*
X2213386D01*
X2193701Y2544095D02*
Y2583465D01*
X2274016Y2563780D02*
X2313386D01*
X2293701Y2544095D02*
Y2583465D01*
X2374016Y2563780D02*
X2413386D01*
X2393701Y2544095D02*
Y2583465D01*
X2474016Y2563780D02*
X2513386D01*
X2493701Y2544095D02*
Y2583465D01*
X2574016Y2563780D02*
X2613386D01*
X2593701Y2544095D02*
Y2583465D01*
X2674016Y2563780D02*
X2713386D01*
X2693701Y2544095D02*
Y2583465D01*
X2774016Y2563780D02*
X2813386D01*
X2793701Y2544095D02*
Y2583465D01*
X2874016Y2563780D02*
X2913386D01*
X2893701Y2544095D02*
Y2583465D01*
X2974016Y2563780D02*
X3013386D01*
X2993701Y2544095D02*
Y2583465D01*
X3074016Y2563780D02*
X3113386D01*
X3093701Y2544095D02*
Y2583465D01*
X3174016Y2563780D02*
X3213386D01*
X3193701Y2544095D02*
Y2583465D01*
X3274016Y2563780D02*
X3313386D01*
X3293701Y2544095D02*
Y2583465D01*
X3374016Y2563780D02*
X3413386D01*
X3393701Y2544095D02*
Y2583465D01*
X3474016Y2563780D02*
X3513386D01*
X3493701Y2544095D02*
Y2583465D01*
X3574016Y2563780D02*
X3613386D01*
X3593701Y2544095D02*
Y2583465D01*
X3674016Y2563780D02*
X3713386D01*
X3693701Y2544095D02*
Y2583465D01*
X1877559Y3505512D02*
X1916929D01*
X1897244Y3485827D02*
Y3525197D01*
X1877559Y3405512D02*
X1916929D01*
X1897244Y3385827D02*
Y3425197D01*
X1877559Y3305512D02*
X1916929D01*
X1897244Y3285827D02*
Y3325197D01*
X2177559Y3505512D02*
X2216929D01*
X2197244Y3485827D02*
Y3525197D01*
X2177559Y3405512D02*
X2216929D01*
X2197244Y3385827D02*
Y3425197D01*
X2177559Y3305512D02*
X2216929D01*
X2197244Y3285827D02*
Y3325197D01*
X1562992Y3503937D02*
X1586614D01*
X1574803Y3492126D02*
Y3515748D01*
X1114173Y3503937D02*
X1137795D01*
X1125984Y3492126D02*
Y3515748D01*
X3307087Y3307087D02*
X3346457D01*
X3326772Y3287402D02*
Y3326772D01*
X3307087Y3207087D02*
X3346457D01*
X3326772Y3187402D02*
Y3226772D01*
X2877953Y3307087D02*
X2901575D01*
X2889764Y3295276D02*
Y3318898D01*
X2429134Y3307087D02*
X2452756D01*
X2440945Y3295276D02*
Y3318898D01*
X2218504Y3149606D02*
X2230315D01*
X2224409Y3143701D02*
Y3155512D01*
%TF.MD5,52122c37c7ac0a342ac0ae5fdfffb452*%
M02*
