%TF.GenerationSoftware,Altium Limited,Altium Designer,21.8.1 (53)*%
G04 Layer_Physical_Order=2*
G04 Layer_Color=16711680*
%FSLAX26Y26*%
%MOIN*%
%TF.SameCoordinates,5B9076D9-9D05-4804-A52A-FD960459403A*%
%TF.FilePolarity,Positive*%
%TF.FileFunction,Copper,L2,Bot,Signal*%
%TF.Part,Single*%
G01*
G75*
%TA.AperFunction,Conductor*%
%ADD11C,0.019685*%
%TA.AperFunction,ComponentPad*%
%ADD12O,0.078740X0.062992*%
%ADD13R,0.078740X0.062992*%
%ADD14R,0.062992X0.078740*%
%ADD15O,0.062992X0.078740*%
%ADD16C,0.047244*%
%ADD17C,0.062992*%
%TA.AperFunction,ViaPad*%
%ADD18C,0.023622*%
D11*
X3104909Y1056508D02*
X3322835Y838583D01*
X3409449D01*
X2716535Y1056508D02*
X3104909D01*
X2047244D02*
X2716535D01*
Y842520D02*
X2720472Y838583D01*
X2716535Y842520D02*
Y1056508D01*
X1496063D02*
X2047244D01*
Y842520D02*
X2051181Y838583D01*
X2047244Y842520D02*
Y1056508D01*
X1358268Y846457D02*
X1496063Y984252D01*
X708661Y452756D02*
Y1060236D01*
X319291Y1449606D02*
X708661Y1060236D01*
X319291Y1449606D02*
Y2113780D01*
X2393701Y2563780D02*
Y2638075D01*
X2413106Y2657480D02*
X3315240D01*
X2393701Y2638075D02*
X2413106Y2657480D01*
X3326772Y2669012D02*
Y3207087D01*
X3315240Y2657480D02*
X3326772Y2669012D01*
X3188976Y3218618D02*
X3200508Y3207087D01*
X3188976Y3218618D02*
Y3720472D01*
X3200508Y3207087D02*
X3326772D01*
X1673228Y3759843D02*
X3149606D01*
X857988D02*
X1673228D01*
X1684760Y3405512D02*
X1897244D01*
X1673228Y3417043D02*
Y3759843D01*
Y3417043D02*
X1684760Y3405512D01*
X3149606Y3759843D02*
X3188976Y3720472D01*
X846457Y3748311D02*
X857988Y3759843D01*
X846457Y3200508D02*
Y3748311D01*
X255905Y3188976D02*
X834925D01*
X846457Y3200508D01*
X531496Y2598425D02*
X1023622D01*
X496063D02*
X531496D01*
X527559Y2422047D02*
Y2594488D01*
X519291Y2413780D02*
X527559Y2422047D01*
Y2594488D02*
X531496Y2598425D01*
X1023622D02*
X1161417D01*
X1019291Y2413780D02*
X1023622Y2418110D01*
Y2598425D01*
X1496063Y1056508D02*
Y2263780D01*
Y984252D02*
Y1056508D01*
X319291Y2421653D02*
X496063Y2598425D01*
X319291Y2413780D02*
Y2421653D01*
X1161417Y2598425D02*
X1496063Y2263780D01*
X2578740D01*
X2593701Y2278740D01*
Y2563780D01*
X1122047Y3500000D02*
X1125984Y3503937D01*
X1122047Y3161138D02*
Y3500000D01*
X1133579Y3149606D02*
X2224409D01*
X1122047Y3161138D02*
X1133579Y3149606D01*
D12*
X3070866Y838583D02*
D03*
Y1204724D02*
D03*
X3759843D02*
D03*
Y838583D02*
D03*
X2401575Y1204724D02*
D03*
Y838583D02*
D03*
X1708661Y1212599D02*
D03*
Y846457D02*
D03*
X255905Y3188976D02*
D03*
X1897244Y3405512D02*
D03*
Y3305512D02*
D03*
X2197244Y3505512D02*
D03*
Y3405512D02*
D03*
Y3305512D02*
D03*
X3326772Y3307087D02*
D03*
D13*
X2720472Y838583D02*
D03*
X3409449D02*
D03*
X2051181D02*
D03*
X1358268Y846457D02*
D03*
X255905Y3288976D02*
D03*
X1897244Y3505512D02*
D03*
X3326772Y3207087D02*
D03*
D14*
X2796850Y1712598D02*
D03*
X508661Y452756D02*
D03*
X319291Y2113780D02*
D03*
X3693701Y2563780D02*
D03*
D15*
X2696850Y1712598D02*
D03*
X808661Y452756D02*
D03*
X708661D02*
D03*
X608661D02*
D03*
X1019291Y2413780D02*
D03*
X919291D02*
D03*
X819291D02*
D03*
X719291D02*
D03*
X619291D02*
D03*
X519291D02*
D03*
X419291D02*
D03*
X319291D02*
D03*
X1019291Y2113780D02*
D03*
X919291D02*
D03*
X819291D02*
D03*
X719291D02*
D03*
X619291D02*
D03*
X519291D02*
D03*
X419291D02*
D03*
X2093701Y1963780D02*
D03*
X2193701D02*
D03*
X2293701D02*
D03*
X2393701D02*
D03*
X2493701D02*
D03*
X2593701D02*
D03*
X2693701D02*
D03*
X2793701D02*
D03*
X2893701D02*
D03*
X2993701D02*
D03*
X3093701D02*
D03*
X3193701D02*
D03*
X3293701D02*
D03*
X3393701D02*
D03*
X3493701D02*
D03*
X3593701D02*
D03*
X3693701D02*
D03*
X2093701Y2563780D02*
D03*
X2193701D02*
D03*
X2293701D02*
D03*
X2393701D02*
D03*
X2493701D02*
D03*
X2593701D02*
D03*
X2693701D02*
D03*
X2793701D02*
D03*
X2893701D02*
D03*
X2993701D02*
D03*
X3093701D02*
D03*
X3193701D02*
D03*
X3293701D02*
D03*
X3393701D02*
D03*
X3493701D02*
D03*
X3593701D02*
D03*
D16*
X3759843Y181102D02*
D03*
Y629921D02*
D03*
X3070866Y181102D02*
D03*
Y629921D02*
D03*
X2381890Y177165D02*
D03*
Y625984D02*
D03*
X1692914Y177165D02*
D03*
Y625984D02*
D03*
X1574803Y3503937D02*
D03*
X1125984D02*
D03*
X2889764Y3307087D02*
D03*
X2440945D02*
D03*
D17*
X520866Y1929134D02*
D03*
X620866D02*
D03*
D18*
X2224409Y3149606D02*
D03*
%TF.MD5,3df10b71f290c79ad14e12279c897a3d*%
M02*
