%TF.GenerationSoftware,Altium Limited,Altium Designer,21.8.1 (53)*%
G04 Layer_Color=65535*
%FSLAX26Y26*%
%MOIN*%
%TF.SameCoordinates,5B9076D9-9D05-4804-A52A-FD960459403A*%
%TF.FilePolarity,Positive*%
%TF.FileFunction,Legend,Top*%
%TF.Part,Single*%
G01*
G75*
%TA.AperFunction,NonConductor*%
%ADD26C,0.010000*%
%ADD27C,0.007874*%
G36*
X318898Y2035433D02*
X299213Y1996063D01*
X338583D01*
X318898Y2035433D01*
D02*
G37*
G36*
X1818898Y3503937D02*
X1803150Y3511811D01*
X1779528Y3523622D01*
Y3488189D01*
X1818898Y3503937D01*
D02*
G37*
G36*
X3692913Y2618110D02*
X3704724Y2641732D01*
X3712598Y2657480D01*
X3673228D01*
X3692913Y2618110D01*
D02*
G37*
D26*
X559900Y1895672D02*
G03*
X581832Y1895672I10966J25588D01*
G01*
Y1962596D02*
G03*
X559900Y1962596I-10966J-25588D01*
G01*
X1026514Y897638D02*
G03*
X1026514Y897638I-367852J0D01*
G01*
X2657480Y787402D02*
Y1259842D01*
Y787402D02*
X3129921D01*
Y1259842D01*
X2657480D02*
X3129921D01*
X2848032Y1653543D02*
Y1771653D01*
X2643307Y1653543D02*
X2848032D01*
X2643307D02*
Y1771653D01*
X2848032D01*
X3346457Y1259842D02*
X3818898D01*
Y787402D02*
Y1259842D01*
X3346457Y787402D02*
X3818898D01*
X3346457D02*
Y1259842D01*
X1988189D02*
X2460630D01*
Y787402D02*
Y1259842D01*
X1988189Y787402D02*
X2460630D01*
X1988189D02*
Y1259842D01*
X1295275Y1267717D02*
X1767716D01*
Y795276D02*
Y1267717D01*
X1295275Y795276D02*
X1767716D01*
X1295275D02*
Y1267717D01*
X568110Y275591D02*
X627165D01*
X509055D02*
X568110D01*
Y216535D02*
Y334646D01*
X107480Y393701D02*
X1209842D01*
Y1318898D01*
X107480D02*
X1209842D01*
X107480Y393701D02*
Y1318898D01*
X705905Y275591D02*
X764961D01*
X820079D01*
X196850Y3135433D02*
Y3340157D01*
Y3135433D02*
X314961D01*
Y3340157D01*
X196850D02*
X314961D01*
X137795Y3248031D02*
Y3326772D01*
X98425Y3287401D02*
X177165D01*
X3405512Y3307087D02*
X3484252D01*
X3444882Y3267716D02*
Y3346457D01*
X3385827Y3155905D02*
Y3360630D01*
X3267717D02*
X3385827D01*
X3267717Y3155905D02*
Y3360630D01*
Y3155905D02*
X3385827D01*
X2701987Y1344984D02*
X2691990Y1354981D01*
X2671997D01*
X2662000Y1344984D01*
Y1334987D01*
X2671997Y1324990D01*
X2691990D01*
X2701987Y1314994D01*
Y1304997D01*
X2691990Y1295000D01*
X2671997D01*
X2662000Y1304997D01*
X2721981Y1354981D02*
Y1295000D01*
X2741974Y1314994D01*
X2761968Y1295000D01*
Y1354981D01*
X2781961Y1344984D02*
X2791958Y1354981D01*
X2811952D01*
X2821948Y1344984D01*
Y1334987D01*
X2811952Y1324990D01*
X2801955D01*
X2811952D01*
X2821948Y1314994D01*
Y1304997D01*
X2811952Y1295000D01*
X2791958D01*
X2781961Y1304997D01*
X2539370Y1742589D02*
X2519377D01*
X2529373D01*
Y1692605D01*
X2519377Y1682608D01*
X2509380D01*
X2499383Y1692605D01*
X2559364Y1682608D02*
X2579357D01*
X2569360D01*
Y1742589D01*
X2559364Y1732592D01*
X3572063Y383396D02*
Y443376D01*
X3602054D01*
X3612050Y433379D01*
Y413386D01*
X3602054Y403389D01*
X3572063D01*
X3592057D02*
X3612050Y383396D01*
X3662034D02*
Y443376D01*
X3632044Y413386D01*
X3672031D01*
X2883087Y383396D02*
Y443376D01*
X2913077D01*
X2923074Y433379D01*
Y413386D01*
X2913077Y403389D01*
X2883087D01*
X2903081D02*
X2923074Y383396D01*
X2943068Y433379D02*
X2953064Y443376D01*
X2973058D01*
X2983055Y433379D01*
Y423383D01*
X2973058Y413386D01*
X2963061D01*
X2973058D01*
X2983055Y403389D01*
Y393392D01*
X2973058Y383396D01*
X2953064D01*
X2943068Y393392D01*
X2194111Y383396D02*
Y443376D01*
X2224101D01*
X2234098Y433379D01*
Y413386D01*
X2224101Y403389D01*
X2194111D01*
X2214104D02*
X2234098Y383396D01*
X2294078D02*
X2254091D01*
X2294078Y423383D01*
Y433379D01*
X2284082Y443376D01*
X2264088D01*
X2254091Y433379D01*
X1534816Y383396D02*
Y443376D01*
X1564806D01*
X1574803Y433379D01*
Y413386D01*
X1564806Y403389D01*
X1534816D01*
X1554810D02*
X1574803Y383396D01*
X1594797D02*
X1614790D01*
X1604793D01*
Y443376D01*
X1594797Y433379D01*
X88740Y3869193D02*
Y3819209D01*
X98737Y3809213D01*
X118731D01*
X128727Y3819209D01*
Y3869193D01*
X148721Y3809213D02*
Y3849200D01*
X178711D01*
X188708Y3839203D01*
Y3809213D01*
X208701D02*
X228695D01*
X218698D01*
Y3849200D01*
X208701D01*
X258685D02*
X278679Y3809213D01*
X298672Y3849200D01*
X348656Y3809213D02*
X328663D01*
X318666Y3819209D01*
Y3839203D01*
X328663Y3849200D01*
X348656D01*
X358653Y3839203D01*
Y3829206D01*
X318666D01*
X378646Y3849200D02*
Y3809213D01*
Y3829206D01*
X388643Y3839203D01*
X398640Y3849200D01*
X408637D01*
X438627Y3809213D02*
X468617D01*
X478614Y3819209D01*
X468617Y3829206D01*
X448624D01*
X438627Y3839203D01*
X448624Y3849200D01*
X478614D01*
X498608Y3809213D02*
X518601D01*
X508604D01*
Y3849200D01*
X498608D01*
X558588Y3859196D02*
Y3849200D01*
X548591D01*
X568585D01*
X558588D01*
Y3819209D01*
X568585Y3809213D01*
X628566D02*
X608572D01*
X598575Y3819209D01*
Y3839203D01*
X608572Y3849200D01*
X628566D01*
X638562Y3839203D01*
Y3829206D01*
X598575D01*
X718536Y3869193D02*
X758524D01*
X738530D01*
Y3809213D01*
X818504Y3869193D02*
X778517D01*
Y3809213D01*
X818504D01*
X778517Y3839203D02*
X798510D01*
X838498Y3869193D02*
Y3809213D01*
X878485D01*
X898478Y3869193D02*
Y3819209D01*
X908475Y3809213D01*
X928468D01*
X938465Y3819209D01*
Y3869193D01*
X998446Y3819209D02*
Y3859196D01*
X988449Y3869193D01*
X968456D01*
X958459Y3859196D01*
Y3819209D01*
X968456Y3809213D01*
X988449D01*
X978452Y3829206D02*
X998446Y3809213D01*
X988449D02*
X998446Y3819209D01*
X1118407Y3809213D02*
X1078420D01*
X1118407Y3849200D01*
Y3859196D01*
X1108410Y3869193D01*
X1088417D01*
X1078420Y3859196D01*
X1138401D02*
X1148397Y3869193D01*
X1168391D01*
X1178388Y3859196D01*
Y3819209D01*
X1168391Y3809213D01*
X1148397D01*
X1138401Y3819209D01*
Y3859196D01*
X1238368Y3809213D02*
X1198381D01*
X1238368Y3849200D01*
Y3859196D01*
X1228371Y3869193D01*
X1208378D01*
X1198381Y3859196D01*
X1258362Y3809213D02*
X1278355D01*
X1268359D01*
Y3869193D01*
X1258362Y3859196D01*
X785833Y880958D02*
X795830Y870961D01*
X815824D01*
X825820Y880958D01*
Y920945D01*
X815824Y930942D01*
X795830D01*
X785833Y920945D01*
X765840Y930942D02*
Y870961D01*
X735850D01*
X725853Y880958D01*
Y900951D01*
X735850Y910948D01*
X765840D01*
X745846D02*
X725853Y930942D01*
X665872D02*
X705859D01*
X665872Y890955D01*
Y880958D01*
X675869Y870961D01*
X695862D01*
X705859Y880958D01*
X645879D02*
X635882Y870961D01*
X615888D01*
X605891Y880958D01*
Y920945D01*
X615888Y930942D01*
X635882D01*
X645879Y920945D01*
Y880958D01*
X585898D02*
X575901Y870961D01*
X555908D01*
X545911Y880958D01*
Y890955D01*
X555908Y900951D01*
X565904D01*
X555908D01*
X545911Y910948D01*
Y920945D01*
X555908Y930942D01*
X575901D01*
X585898Y920945D01*
X485930Y930942D02*
X525917D01*
X485930Y890955D01*
Y880958D01*
X495927Y870961D01*
X515921D01*
X525917Y880958D01*
X3651732Y2687165D02*
X3671726D01*
X3661729D01*
Y2747146D01*
X3651732Y2737149D01*
X3701716D02*
X3711713Y2747146D01*
X3731706D01*
X3741703Y2737149D01*
Y2727153D01*
X3731706Y2717156D01*
X3721710D01*
X3731706D01*
X3741703Y2707159D01*
Y2697162D01*
X3731706Y2687165D01*
X3711713D01*
X3701716Y2697162D01*
X3390987Y1344984D02*
X3380990Y1354981D01*
X3360997D01*
X3351000Y1344984D01*
Y1334987D01*
X3360997Y1324990D01*
X3380990D01*
X3390987Y1314994D01*
Y1304997D01*
X3380990Y1295000D01*
X3360997D01*
X3351000Y1304997D01*
X3410981Y1354981D02*
Y1295000D01*
X3430974Y1314994D01*
X3450968Y1295000D01*
Y1354981D01*
X3500952Y1295000D02*
Y1354981D01*
X3470961Y1324990D01*
X3510948D01*
X2032987Y1344984D02*
X2022990Y1354981D01*
X2002997D01*
X1993000Y1344984D01*
Y1334987D01*
X2002997Y1324990D01*
X2022990D01*
X2032987Y1314994D01*
Y1304997D01*
X2022990Y1295000D01*
X2002997D01*
X1993000Y1304997D01*
X2052981Y1354981D02*
Y1295000D01*
X2072974Y1314994D01*
X2092968Y1295000D01*
Y1354981D01*
X2152948Y1295000D02*
X2112961D01*
X2152948Y1334987D01*
Y1344984D01*
X2142952Y1354981D01*
X2122958D01*
X2112961Y1344984D01*
X1339987Y1352984D02*
X1329990Y1362981D01*
X1309997D01*
X1300000Y1352984D01*
Y1342987D01*
X1309997Y1332990D01*
X1329990D01*
X1339987Y1322994D01*
Y1312997D01*
X1329990Y1303000D01*
X1309997D01*
X1300000Y1312997D01*
X1359981Y1362981D02*
Y1303000D01*
X1379974Y1322994D01*
X1399968Y1303000D01*
Y1362981D01*
X1419961Y1303000D02*
X1439955D01*
X1429958D01*
Y1362981D01*
X1419961Y1352984D01*
X530879Y1841014D02*
X570866Y1781033D01*
Y1841014D02*
X530879Y1781033D01*
X590860D02*
X610853D01*
X600856D01*
Y1841014D01*
X590860Y1831017D01*
X324649Y3435502D02*
X304655D01*
X314652D01*
Y3385518D01*
X304655Y3375521D01*
X294659D01*
X284662Y3385518D01*
X344642Y3425505D02*
X354639Y3435502D01*
X374633D01*
X384630Y3425505D01*
Y3415509D01*
X374633Y3405512D01*
X364636D01*
X374633D01*
X384630Y3395515D01*
Y3385518D01*
X374633Y3375521D01*
X354639D01*
X344642Y3385518D01*
X275000Y2577981D02*
Y2527997D01*
X284997Y2518000D01*
X304990D01*
X314987Y2527997D01*
Y2577981D01*
X374968Y2518000D02*
X334981D01*
X374968Y2557987D01*
Y2567984D01*
X364971Y2577981D01*
X344977D01*
X334981Y2567984D01*
X1790000Y3648981D02*
Y3598997D01*
X1799997Y3589000D01*
X1819990D01*
X1829987Y3598997D01*
Y3648981D01*
X1879971Y3589000D02*
Y3648981D01*
X1849981Y3618990D01*
X1889968D01*
X112000Y1413981D02*
Y1363997D01*
X121997Y1354000D01*
X141990D01*
X151987Y1363997D01*
Y1413981D01*
X171981Y1403984D02*
X181977Y1413981D01*
X201971D01*
X211968Y1403984D01*
Y1393987D01*
X201971Y1383990D01*
X191974D01*
X201971D01*
X211968Y1373994D01*
Y1363997D01*
X201971Y1354000D01*
X181977D01*
X171981Y1363997D01*
X1955000Y2746981D02*
Y2696997D01*
X1964997Y2687000D01*
X1984990D01*
X1994987Y2696997D01*
Y2746981D01*
X2014981Y2687000D02*
X2034974D01*
X2024977D01*
Y2746981D01*
X2014981Y2736984D01*
X2423000Y3388000D02*
Y3447981D01*
X2452990D01*
X2462987Y3437984D01*
Y3417990D01*
X2452990Y3407994D01*
X2423000D01*
X2442994D02*
X2462987Y3388000D01*
X2522968Y3447981D02*
X2502974Y3437984D01*
X2482981Y3417990D01*
Y3397997D01*
X2492977Y3388000D01*
X2512971D01*
X2522968Y3397997D01*
Y3407994D01*
X2512971Y3417990D01*
X2482981D01*
X1108000Y3585000D02*
Y3644981D01*
X1137990D01*
X1147987Y3634984D01*
Y3614990D01*
X1137990Y3604994D01*
X1108000D01*
X1127994D02*
X1147987Y3585000D01*
X1207968Y3644981D02*
X1167981D01*
Y3614990D01*
X1187974Y3624987D01*
X1197971D01*
X1207968Y3614990D01*
Y3594997D01*
X1197971Y3585000D01*
X1177977D01*
X1167981Y3594997D01*
X3312987Y3455981D02*
X3292994D01*
X3302990D01*
Y3405997D01*
X3292994Y3396000D01*
X3282997D01*
X3273000Y3405997D01*
X3372968Y3396000D02*
X3332981D01*
X3372968Y3435987D01*
Y3445984D01*
X3362971Y3455981D01*
X3342977D01*
X3332981Y3445984D01*
D27*
X269291Y2238780D02*
G03*
X269291Y2288780I0J25000D01*
G01*
X3838189D02*
G03*
X3838189Y2238780I0J-25000D01*
G01*
X2022244Y3555512D02*
G03*
X2072244Y3555512I25000J0D01*
G01*
X3712599Y287402D02*
X3807087D01*
X3712599D02*
Y523622D01*
X3807087D01*
Y287402D02*
Y523622D01*
X3759843D02*
Y582677D01*
Y228346D02*
Y287402D01*
X3023622D02*
X3118110D01*
X3023622D02*
Y523622D01*
X3118110D01*
Y287402D02*
Y523622D01*
X3070866D02*
Y582677D01*
Y228346D02*
Y287402D01*
X2334646Y283465D02*
X2429134D01*
X2334646D02*
Y519685D01*
X2429134D01*
Y283465D02*
Y519685D01*
X2381890D02*
Y578740D01*
Y224410D02*
Y283465D01*
X1645669D02*
X1740158D01*
X1645669D02*
Y519685D01*
X1740158D01*
Y283465D02*
Y519685D01*
X1692914D02*
Y578740D01*
Y224410D02*
Y283465D01*
X269291Y2035433D02*
X1069291D01*
Y2484252D01*
X269291D02*
X1069291D01*
X269291Y2288780D02*
Y2484252D01*
Y2035433D02*
Y2238780D01*
X3838189Y1909449D02*
Y2238780D01*
Y2288780D02*
Y2618110D01*
X1948819Y2618110D02*
X3838189Y2618110D01*
X1948819Y1909449D02*
Y2618110D01*
Y1909449D02*
X3838189Y1909449D01*
X2275591Y3255512D02*
Y3555512D01*
X1818898Y3255512D02*
X2275591D01*
X1818898D02*
Y3555512D01*
X2072244D02*
X2275591D01*
X1818898D02*
X2022244D01*
X1173228Y3503937D02*
X1232283D01*
X1468504D02*
X1527559D01*
X1232283Y3456693D02*
X1468504D01*
Y3551181D01*
X1232283D02*
X1468504D01*
X1232283Y3456693D02*
Y3551181D01*
X2488189Y3307087D02*
X2547244D01*
X2783465D02*
X2842520D01*
X2547244Y3259843D02*
X2783465D01*
Y3354331D01*
X2547244D02*
X2783465D01*
X2547244Y3259843D02*
Y3354331D01*
%TF.MD5,27d0b7d631a565ca22b90eedd6fab8a6*%
M02*
