%TF.GenerationSoftware,Altium Limited,Altium Designer,21.8.1 (53)*%
G04 Layer_Color=2752767*
%FSLAX26Y26*%
%MOIN*%
%TF.SameCoordinates,5B9076D9-9D05-4804-A52A-FD960459403A*%
%TF.FilePolarity,Positive*%
%TF.FileFunction,Drawing*%
%TF.Part,Single*%
G01*
G75*
%TA.AperFunction,NonConductor*%
%ADD37C,0.005000*%
%ADD38C,0.006667*%
D37*
X3050866Y818583D02*
Y858583D01*
X3090866D01*
Y818583D01*
X3050866D01*
Y1184724D02*
Y1224724D01*
X3090866D01*
Y1184724D01*
X3050866D01*
X2700472Y818583D02*
Y858583D01*
X2740472D01*
Y818583D01*
X2700472D01*
X2776850Y1692598D02*
Y1732598D01*
X2816850D01*
Y1692598D01*
X2776850D01*
X2676850D02*
Y1732598D01*
X2716850D01*
Y1692598D01*
X2676850D01*
X520866Y1909134D02*
X500866Y1949134D01*
X540866D01*
X520866Y1909134D01*
X620866D02*
X600866Y1949134D01*
X640866D01*
X620866Y1909134D01*
X3389449Y818583D02*
Y858583D01*
X3429449D01*
Y818583D01*
X3389449D01*
X3739843Y1184724D02*
Y1224724D01*
X3779843D01*
Y1184724D01*
X3739843D01*
Y818583D02*
Y858583D01*
X3779843D01*
Y818583D01*
X3739843D01*
X2031181D02*
Y858583D01*
X2071181D01*
Y818583D01*
X2031181D01*
X2381575Y1184724D02*
Y1224724D01*
X2421575D01*
Y1184724D01*
X2381575D01*
Y818583D02*
Y858583D01*
X2421575D01*
Y818583D01*
X2381575D01*
X1338268Y826457D02*
Y866457D01*
X1378268D01*
Y826457D01*
X1338268D01*
X1688661Y1192599D02*
Y1232599D01*
X1728661D01*
Y1192599D01*
X1688661D01*
Y826457D02*
Y866457D01*
X1728661D01*
Y826457D01*
X1688661D01*
X788661Y432756D02*
Y472756D01*
X828661D01*
Y432756D01*
X788661D01*
X688661D02*
Y472756D01*
X728661D01*
Y432756D01*
X688661D01*
X588661D02*
Y472756D01*
X628661D01*
Y432756D01*
X588661D01*
X488661D02*
Y472756D01*
X528661D01*
Y432756D01*
X488661D01*
X235905Y3168976D02*
Y3208976D01*
X275906D01*
Y3168976D01*
X235905D01*
Y3268976D02*
Y3308976D01*
X275906D01*
Y3268976D01*
X235905D01*
X999291Y2393780D02*
Y2433780D01*
X1039291D01*
Y2393780D01*
X999291D01*
X899291D02*
Y2433780D01*
X939291D01*
Y2393780D01*
X899291D01*
X799291D02*
Y2433780D01*
X839291D01*
Y2393780D01*
X799291D01*
X699291D02*
Y2433780D01*
X739291D01*
Y2393780D01*
X699291D01*
X599291D02*
Y2433780D01*
X639291D01*
Y2393780D01*
X599291D01*
X499291D02*
Y2433780D01*
X539291D01*
Y2393780D01*
X499291D01*
X399291D02*
Y2433780D01*
X439291D01*
Y2393780D01*
X399291D01*
X299291D02*
Y2433780D01*
X339291D01*
Y2393780D01*
X299291D01*
X999291Y2093780D02*
Y2133780D01*
X1039291D01*
Y2093780D01*
X999291D01*
X899291D02*
Y2133780D01*
X939291D01*
Y2093780D01*
X899291D01*
X799291D02*
Y2133780D01*
X839291D01*
Y2093780D01*
X799291D01*
X699291D02*
Y2133780D01*
X739291D01*
Y2093780D01*
X699291D01*
X599291D02*
Y2133780D01*
X639291D01*
Y2093780D01*
X599291D01*
X499291D02*
Y2133780D01*
X539291D01*
Y2093780D01*
X499291D01*
X399291D02*
Y2133780D01*
X439291D01*
Y2093780D01*
X399291D01*
X299291D02*
Y2133780D01*
X339291D01*
Y2093780D01*
X299291D01*
X2073701Y1943780D02*
Y1983780D01*
X2113701D01*
Y1943780D01*
X2073701D01*
X2173701D02*
Y1983780D01*
X2213701D01*
Y1943780D01*
X2173701D01*
X2273701D02*
Y1983780D01*
X2313701D01*
Y1943780D01*
X2273701D01*
X2373701D02*
Y1983780D01*
X2413701D01*
Y1943780D01*
X2373701D01*
X2473701D02*
Y1983780D01*
X2513701D01*
Y1943780D01*
X2473701D01*
X2573701D02*
Y1983780D01*
X2613701D01*
Y1943780D01*
X2573701D01*
X2673701D02*
Y1983780D01*
X2713701D01*
Y1943780D01*
X2673701D01*
X2773701D02*
Y1983780D01*
X2813701D01*
Y1943780D01*
X2773701D01*
X2873701D02*
Y1983780D01*
X2913701D01*
Y1943780D01*
X2873701D01*
X2973701D02*
Y1983780D01*
X3013701D01*
Y1943780D01*
X2973701D01*
X3073701D02*
Y1983780D01*
X3113701D01*
Y1943780D01*
X3073701D01*
X3173701D02*
Y1983780D01*
X3213701D01*
Y1943780D01*
X3173701D01*
X3273701D02*
Y1983780D01*
X3313701D01*
Y1943780D01*
X3273701D01*
X3373701D02*
Y1983780D01*
X3413701D01*
Y1943780D01*
X3373701D01*
X3473701D02*
Y1983780D01*
X3513701D01*
Y1943780D01*
X3473701D01*
X3573701D02*
Y1983780D01*
X3613701D01*
Y1943780D01*
X3573701D01*
X3673701D02*
Y1983780D01*
X3713701D01*
Y1943780D01*
X3673701D01*
X2073701Y2543780D02*
Y2583780D01*
X2113701D01*
Y2543780D01*
X2073701D01*
X2173701D02*
Y2583780D01*
X2213701D01*
Y2543780D01*
X2173701D01*
X2273701D02*
Y2583780D01*
X2313701D01*
Y2543780D01*
X2273701D01*
X2373701D02*
Y2583780D01*
X2413701D01*
Y2543780D01*
X2373701D01*
X2473701D02*
Y2583780D01*
X2513701D01*
Y2543780D01*
X2473701D01*
X2573701D02*
Y2583780D01*
X2613701D01*
Y2543780D01*
X2573701D01*
X2673701D02*
Y2583780D01*
X2713701D01*
Y2543780D01*
X2673701D01*
X2773701D02*
Y2583780D01*
X2813701D01*
Y2543780D01*
X2773701D01*
X2873701D02*
Y2583780D01*
X2913701D01*
Y2543780D01*
X2873701D01*
X2973701D02*
Y2583780D01*
X3013701D01*
Y2543780D01*
X2973701D01*
X3073701D02*
Y2583780D01*
X3113701D01*
Y2543780D01*
X3073701D01*
X3173701D02*
Y2583780D01*
X3213701D01*
Y2543780D01*
X3173701D01*
X3273701D02*
Y2583780D01*
X3313701D01*
Y2543780D01*
X3273701D01*
X3373701D02*
Y2583780D01*
X3413701D01*
Y2543780D01*
X3373701D01*
X3473701D02*
Y2583780D01*
X3513701D01*
Y2543780D01*
X3473701D01*
X3573701D02*
Y2583780D01*
X3613701D01*
Y2543780D01*
X3573701D01*
X3673701D02*
Y2583780D01*
X3713701D01*
Y2543780D01*
X3673701D01*
X1877244Y3485512D02*
Y3525512D01*
X1917244D01*
Y3485512D01*
X1877244D01*
Y3385512D02*
Y3425512D01*
X1917244D01*
Y3385512D01*
X1877244D01*
Y3285512D02*
Y3325512D01*
X1917244D01*
Y3285512D01*
X1877244D01*
X2177244Y3485512D02*
Y3525512D01*
X2217244D01*
Y3485512D01*
X2177244D01*
Y3385512D02*
Y3425512D01*
X2217244D01*
Y3385512D01*
X2177244D01*
Y3285512D02*
Y3325512D01*
X2217244D01*
Y3285512D01*
X2177244D01*
X3306772Y3287087D02*
Y3327087D01*
X3346772D01*
Y3287087D01*
X3306772D01*
Y3187087D02*
Y3227087D01*
X3346772D01*
Y3187087D01*
X3306772D01*
X2224409Y3129606D02*
X2234409Y3139606D01*
X2244409D01*
X2234409Y3149606D01*
X2244409Y3159606D01*
X2234409D01*
X2224409Y3169606D01*
X2214409Y3159606D01*
X2204409D01*
X2214409Y3149606D01*
X2204409Y3139606D01*
X2214409D01*
X2224409Y3129606D01*
D38*
X3779843Y181102D02*
G03*
X3779843Y181102I-20000J0D01*
G01*
Y629921D02*
G03*
X3779843Y629921I-20000J0D01*
G01*
X3090866Y181102D02*
G03*
X3090866Y181102I-20000J0D01*
G01*
Y629921D02*
G03*
X3090866Y629921I-20000J0D01*
G01*
X2401890Y177165D02*
G03*
X2401890Y177165I-20000J0D01*
G01*
Y625984D02*
G03*
X2401890Y625984I-20000J0D01*
G01*
X1712914Y177165D02*
G03*
X1712914Y177165I-20000J0D01*
G01*
Y625984D02*
G03*
X1712914Y625984I-20000J0D01*
G01*
X1594803Y3503937D02*
G03*
X1594803Y3503937I-20000J0D01*
G01*
X1145984D02*
G03*
X1145984Y3503937I-20000J0D01*
G01*
X2909764Y3307087D02*
G03*
X2909764Y3307087I-20000J0D01*
G01*
X2460945D02*
G03*
X2460945Y3307087I-20000J0D01*
G01*
%TF.MD5,48e828e71c8ad2f8485ac20a45adbf97*%
M02*
