%TF.GenerationSoftware,Altium Limited,Altium Designer,21.8.1 (53)*%
G04 Layer_Color=16711935*
%FSLAX26Y26*%
%MOIN*%
%TF.SameCoordinates,5B9076D9-9D05-4804-A52A-FD960459403A*%
%TF.FilePolarity,Negative*%
%TF.FileFunction,Soldermask,Bot*%
%TF.Part,Single*%
G01*
G75*
%TA.AperFunction,ComponentPad*%
%ADD19O,0.086740X0.070992*%
%ADD20R,0.086740X0.070992*%
%ADD21R,0.070992X0.086740*%
%ADD22O,0.070992X0.086740*%
%ADD23C,0.055244*%
%ADD24C,0.070992*%
%TA.AperFunction,ViaPad*%
%ADD25C,0.031622*%
D19*
X3070866Y838583D02*
D03*
Y1204724D02*
D03*
X3759843D02*
D03*
Y838583D02*
D03*
X2401575Y1204724D02*
D03*
Y838583D02*
D03*
X1708661Y1212599D02*
D03*
Y846457D02*
D03*
X255905Y3188976D02*
D03*
X1897244Y3405512D02*
D03*
Y3305512D02*
D03*
X2197244Y3505512D02*
D03*
Y3405512D02*
D03*
Y3305512D02*
D03*
X3326772Y3307087D02*
D03*
D20*
X2720472Y838583D02*
D03*
X3409449D02*
D03*
X2051181D02*
D03*
X1358268Y846457D02*
D03*
X255905Y3288976D02*
D03*
X1897244Y3505512D02*
D03*
X3326772Y3207087D02*
D03*
D21*
X2796850Y1712598D02*
D03*
X508661Y452756D02*
D03*
X319291Y2113780D02*
D03*
X3693701Y2563780D02*
D03*
D22*
X2696850Y1712598D02*
D03*
X808661Y452756D02*
D03*
X708661D02*
D03*
X608661D02*
D03*
X1019291Y2413780D02*
D03*
X919291D02*
D03*
X819291D02*
D03*
X719291D02*
D03*
X619291D02*
D03*
X519291D02*
D03*
X419291D02*
D03*
X319291D02*
D03*
X1019291Y2113780D02*
D03*
X919291D02*
D03*
X819291D02*
D03*
X719291D02*
D03*
X619291D02*
D03*
X519291D02*
D03*
X419291D02*
D03*
X2093701Y1963780D02*
D03*
X2193701D02*
D03*
X2293701D02*
D03*
X2393701D02*
D03*
X2493701D02*
D03*
X2593701D02*
D03*
X2693701D02*
D03*
X2793701D02*
D03*
X2893701D02*
D03*
X2993701D02*
D03*
X3093701D02*
D03*
X3193701D02*
D03*
X3293701D02*
D03*
X3393701D02*
D03*
X3493701D02*
D03*
X3593701D02*
D03*
X3693701D02*
D03*
X2093701Y2563780D02*
D03*
X2193701D02*
D03*
X2293701D02*
D03*
X2393701D02*
D03*
X2493701D02*
D03*
X2593701D02*
D03*
X2693701D02*
D03*
X2793701D02*
D03*
X2893701D02*
D03*
X2993701D02*
D03*
X3093701D02*
D03*
X3193701D02*
D03*
X3293701D02*
D03*
X3393701D02*
D03*
X3493701D02*
D03*
X3593701D02*
D03*
D23*
X3759843Y181102D02*
D03*
Y629921D02*
D03*
X3070866Y181102D02*
D03*
Y629921D02*
D03*
X2381890Y177165D02*
D03*
Y625984D02*
D03*
X1692914Y177165D02*
D03*
Y625984D02*
D03*
X1574803Y3503937D02*
D03*
X1125984D02*
D03*
X2889764Y3307087D02*
D03*
X2440945D02*
D03*
D24*
X520866Y1929134D02*
D03*
X620866D02*
D03*
D25*
X2224409Y3149606D02*
D03*
%TF.MD5,ff9c3318832196277bfb38af1d027a51*%
M02*
